<mxfile host="app.diagrams.net" modified="2024-01-10T10:31:22.759Z" agent="Mozilla/5.0 (Windows NT 10.0; Win64; x64) AppleWebKit/537.36 (KHTML, like Gecko) Chrome/120.0.0.0 Safari/537.36" etag="kg9Ny269qxP-ptbx1KmN" version="22.1.18" type="device">
  <diagram id="C5RBs43oDa-KdzZeNtuy" name="Page-1">
    <mxGraphModel dx="1257" dy="746" grid="1" gridSize="10" guides="1" tooltips="1" connect="1" arrows="1" fold="1" page="1" pageScale="1" pageWidth="827" pageHeight="1169" math="0" shadow="0">
      <root>
        <mxCell id="WIyWlLk6GJQsqaUBKTNV-0" />
        <mxCell id="WIyWlLk6GJQsqaUBKTNV-1" parent="WIyWlLk6GJQsqaUBKTNV-0" />
        <mxCell id="k_QJecqLtLhWArz1p9Ba-4" value="MAIN BLOCK" style="swimlane;whiteSpace=wrap;html=1;" vertex="1" parent="WIyWlLk6GJQsqaUBKTNV-1">
          <mxGeometry x="280" y="40" width="200" height="180" as="geometry" />
        </mxCell>
        <mxCell id="k_QJecqLtLhWArz1p9Ba-5" value="&lt;div style=&quot;text-align: justify;&quot;&gt;&lt;span style=&quot;background-color: initial;&quot;&gt;CPU&lt;/span&gt;&lt;/div&gt;" style="text;html=1;align=center;verticalAlign=middle;resizable=0;points=[];autosize=1;strokeColor=none;fillColor=none;" vertex="1" parent="k_QJecqLtLhWArz1p9Ba-4">
          <mxGeometry x="10" y="50" width="50" height="30" as="geometry" />
        </mxCell>
        <mxCell id="k_QJecqLtLhWArz1p9Ba-7" value="USER" style="text;html=1;align=center;verticalAlign=middle;resizable=0;points=[];autosize=1;strokeColor=none;fillColor=none;" vertex="1" parent="k_QJecqLtLhWArz1p9Ba-4">
          <mxGeometry x="110" y="130" width="60" height="30" as="geometry" />
        </mxCell>
        <mxCell id="k_QJecqLtLhWArz1p9Ba-8" value="FILE" style="text;html=1;align=center;verticalAlign=middle;resizable=0;points=[];autosize=1;strokeColor=none;fillColor=none;" vertex="1" parent="k_QJecqLtLhWArz1p9Ba-4">
          <mxGeometry x="10" y="130" width="50" height="30" as="geometry" />
        </mxCell>
        <mxCell id="k_QJecqLtLhWArz1p9Ba-6" value="MEMORY" style="text;html=1;align=center;verticalAlign=middle;resizable=0;points=[];autosize=1;strokeColor=none;fillColor=none;" vertex="1" parent="WIyWlLk6GJQsqaUBKTNV-1">
          <mxGeometry x="380" y="88" width="80" height="30" as="geometry" />
        </mxCell>
        <mxCell id="k_QJecqLtLhWArz1p9Ba-10" value="" style="endArrow=classic;html=1;rounded=0;exitX=0;exitY=1;exitDx=0;exitDy=0;entryX=1;entryY=0;entryDx=0;entryDy=0;" edge="1" parent="WIyWlLk6GJQsqaUBKTNV-1" source="k_QJecqLtLhWArz1p9Ba-4" target="k_QJecqLtLhWArz1p9Ba-15">
          <mxGeometry width="50" height="50" relative="1" as="geometry">
            <mxPoint x="230" y="300" as="sourcePoint" />
            <mxPoint x="200" y="290" as="targetPoint" />
          </mxGeometry>
        </mxCell>
        <mxCell id="k_QJecqLtLhWArz1p9Ba-11" value="" style="endArrow=classic;html=1;rounded=0;exitX=1;exitY=1;exitDx=0;exitDy=0;" edge="1" parent="WIyWlLk6GJQsqaUBKTNV-1" source="k_QJecqLtLhWArz1p9Ba-4">
          <mxGeometry width="50" height="50" relative="1" as="geometry">
            <mxPoint x="390" y="400" as="sourcePoint" />
            <mxPoint x="560" y="280" as="targetPoint" />
          </mxGeometry>
        </mxCell>
        <mxCell id="k_QJecqLtLhWArz1p9Ba-12" value="" style="endArrow=classic;html=1;rounded=0;" edge="1" parent="WIyWlLk6GJQsqaUBKTNV-1" target="k_QJecqLtLhWArz1p9Ba-13">
          <mxGeometry width="50" height="50" relative="1" as="geometry">
            <mxPoint x="370" y="220" as="sourcePoint" />
            <mxPoint x="370" y="400" as="targetPoint" />
          </mxGeometry>
        </mxCell>
        <mxCell id="k_QJecqLtLhWArz1p9Ba-13" value="CPU BLOCK" style="swimlane;horizontal=0;whiteSpace=wrap;html=1;" vertex="1" parent="WIyWlLk6GJQsqaUBKTNV-1">
          <mxGeometry x="20" y="475" width="140" height="110" as="geometry" />
        </mxCell>
        <mxCell id="k_QJecqLtLhWArz1p9Ba-14" value="GET CPU INFO" style="rounded=1;whiteSpace=wrap;html=1;" vertex="1" parent="k_QJecqLtLhWArz1p9Ba-13">
          <mxGeometry x="40" y="40" width="80" height="30" as="geometry" />
        </mxCell>
        <mxCell id="k_QJecqLtLhWArz1p9Ba-21" style="edgeStyle=orthogonalEdgeStyle;rounded=0;orthogonalLoop=1;jettySize=auto;html=1;exitX=0;exitY=0.5;exitDx=0;exitDy=0;" edge="1" parent="WIyWlLk6GJQsqaUBKTNV-1" source="k_QJecqLtLhWArz1p9Ba-15">
          <mxGeometry relative="1" as="geometry">
            <mxPoint x="130" y="355" as="targetPoint" />
          </mxGeometry>
        </mxCell>
        <mxCell id="k_QJecqLtLhWArz1p9Ba-15" value="MEMORY BLOCK" style="swimlane;horizontal=0;whiteSpace=wrap;html=1;" vertex="1" parent="WIyWlLk6GJQsqaUBKTNV-1">
          <mxGeometry x="40" y="240" width="130" height="130" as="geometry" />
        </mxCell>
        <mxCell id="k_QJecqLtLhWArz1p9Ba-16" value="GET MEMORY INFO" style="rounded=1;whiteSpace=wrap;html=1;" vertex="1" parent="k_QJecqLtLhWArz1p9Ba-15">
          <mxGeometry x="40" y="40" width="70" height="50" as="geometry" />
        </mxCell>
        <mxCell id="k_QJecqLtLhWArz1p9Ba-17" value="USER&amp;nbsp; BLOCK" style="swimlane;horizontal=0;whiteSpace=wrap;html=1;" vertex="1" parent="WIyWlLk6GJQsqaUBKTNV-1">
          <mxGeometry x="490" y="280" width="150" height="120" as="geometry" />
        </mxCell>
        <mxCell id="k_QJecqLtLhWArz1p9Ba-18" value="CREATE USER" style="rounded=1;whiteSpace=wrap;html=1;" vertex="1" parent="k_QJecqLtLhWArz1p9Ba-17">
          <mxGeometry x="30" y="10" width="90" height="40" as="geometry" />
        </mxCell>
        <mxCell id="k_QJecqLtLhWArz1p9Ba-19" value="LIST ALL USERS" style="rounded=1;whiteSpace=wrap;html=1;" vertex="1" parent="k_QJecqLtLhWArz1p9Ba-17">
          <mxGeometry x="30" y="60" width="90" height="40" as="geometry" />
        </mxCell>
        <mxCell id="k_QJecqLtLhWArz1p9Ba-24" value="" style="endArrow=classic;html=1;rounded=0;" edge="1" parent="WIyWlLk6GJQsqaUBKTNV-1" target="k_QJecqLtLhWArz1p9Ba-25">
          <mxGeometry width="50" height="50" relative="1" as="geometry">
            <mxPoint x="440" y="220" as="sourcePoint" />
            <mxPoint x="440" y="520" as="targetPoint" />
          </mxGeometry>
        </mxCell>
        <mxCell id="k_QJecqLtLhWArz1p9Ba-25" value="FILE BLOCK" style="swimlane;horizontal=0;whiteSpace=wrap;html=1;" vertex="1" parent="WIyWlLk6GJQsqaUBKTNV-1">
          <mxGeometry x="340" y="475" width="200" height="200" as="geometry" />
        </mxCell>
        <mxCell id="k_QJecqLtLhWArz1p9Ba-26" value="GET FILE INFO" style="rounded=1;whiteSpace=wrap;html=1;" vertex="1" parent="k_QJecqLtLhWArz1p9Ba-25">
          <mxGeometry x="50" y="15" width="120" height="60" as="geometry" />
        </mxCell>
        <mxCell id="k_QJecqLtLhWArz1p9Ba-27" value="--owener, --permission,&amp;nbsp;&lt;br&gt;--size,&lt;br&gt;--last-modified" style="rounded=1;whiteSpace=wrap;html=1;" vertex="1" parent="k_QJecqLtLhWArz1p9Ba-25">
          <mxGeometry x="50" y="105" width="120" height="60" as="geometry" />
        </mxCell>
      </root>
    </mxGraphModel>
  </diagram>
</mxfile>
